<?xml version="1.0" encoding="UTF-8"?>
<!DOCTYPE svg PUBLIC "-//W3C//DTD SVG 1.1//EN" "http://www.w3.org/Graphics/SVG/1.1/DTD/svg11.dtd">
<!-- Creator: CorelDRAW 2020 (64-Bit Version dՎvaluation) -->
<svg xmlns="http://www.w3.org/2000/svg" xml:space="preserve" width="59px" height="59px" version="1.1" style="shape-rendering:geometricPrecision; text-rendering:geometricPrecision; image-rendering:optimizeQuality; fill-rule:evenodd; clip-rule:evenodd"
viewBox="0 0 0.81 0.81"
 xmlns:xlink="http://www.w3.org/1999/xlink"
 xmlns:xodm="http://www.corel.com/coreldraw/odm/2003">
 <defs>
  <style type="text/css">
   <![CDATA[
    .fil0 {fill:none;fill-rule:nonzero}
    .fil1 {fill:#383838;fill-rule:nonzero}
   ]]>
  </style>
 </defs>
 <g id="Plan_x0020_1">
  <metadata id="CorelCorpID_0Corel-Layer"/>
  <g id="_2126538575808">
   <polygon class="fil0" points="0.81,0.81 0,0.81 0,0 0.81,0 "/>
   <path class="fil1" d="M0.68 0.24l-0.28 0 -0.06 -0.08c-0.01,-0.01 -0.03,-0.02 -0.05,-0.02l-0.15 0c-0.04,0 -0.07,0.03 -0.07,0.06l0 0.44c0,0.04 0.03,0.07 0.07,0.07l0.54 0c0.03,0 0.07,-0.03 0.07,-0.07l0 -0.34c0,-0.03 -0.04,-0.06 -0.07,-0.06zm-0.54 0.4l0 0 0 -0.44 0.15 0 0.05 0.08c0.02,0.01 0.04,0.02 0.06,0.02l0.28 0 0 0.34 -0.54 0z"/>
  </g>
 </g>
</svg>
