<?xml version="1.0" encoding="UTF-8"?>
<!DOCTYPE svg PUBLIC "-//W3C//DTD SVG 1.1//EN" "http://www.w3.org/Graphics/SVG/1.1/DTD/svg11.dtd">
<!-- Creator: CorelDRAW 2020 (64-Bit Version dՎvaluation) -->
<svg xmlns="http://www.w3.org/2000/svg" xml:space="preserve" width="59px" height="59px" version="1.1" style="shape-rendering:geometricPrecision; text-rendering:geometricPrecision; image-rendering:optimizeQuality; fill-rule:evenodd; clip-rule:evenodd"
viewBox="0 0 1.13 1.13"
 xmlns:xlink="http://www.w3.org/1999/xlink"
 xmlns:xodm="http://www.corel.com/coreldraw/odm/2003">
 <defs>
  <style type="text/css">
   <![CDATA[
    .fil0 {fill:none;fill-rule:nonzero}
    .fil1 {fill:#383838;fill-rule:nonzero}
   ]]>
  </style>
 </defs>
 <g id="Plan_x0020_1">
  <metadata id="CorelCorpID_0Corel-Layer"/>
  <g id="_2126623667952">
   <polygon class="fil0" points="1.13,1.13 0,1.13 0,0 1.13,0 "/>
   <g>
    <path class="fil1" d="M0.85 0.52l-0.19 0c-0.03,0 -0.05,-0.02 -0.05,-0.05l0 -0.28 0.1 0 0 0.23 0.14 0 0 0.1z"/>
   </g>
   <path class="fil1" d="M0.31 0.61c-0.02,-0.04 -0.03,-0.09 -0.03,-0.14 0,-0.21 0.17,-0.38 0.38,-0.38 0.21,0 0.37,0.17 0.37,0.38 0,0.09 -0.03,0.17 -0.08,0.24l0.11 0c0.04,-0.07 0.07,-0.15 0.07,-0.24 0,-0.26 -0.21,-0.47 -0.47,-0.47 -0.26,0 -0.47,0.21 -0.47,0.47 0,0.05 0.01,0.1 0.02,0.14l0.1 0z"/>
   <path class="fil1" d="M0.98 0.83c-0.01,-0.02 -0.02,-0.03 -0.04,-0.03l-0.36 0 0.02 -0.01c0.01,-0.02 0.02,-0.04 0.01,-0.06l-0.05 -0.09c-0.01,-0.02 -0.04,-0.03 -0.06,-0.03l-0.22 0.08c-0.01,-0.02 -0.03,-0.03 -0.04,-0.03l-0.19 0c-0.03,0 -0.05,0.02 -0.05,0.05l0 0.37c0,0.03 0.02,0.05 0.05,0.05l0.19 0c0.02,0 0.04,-0.02 0.04,-0.05l0.52 0c0.01,0 0.03,-0.01 0.04,-0.02l0.14 -0.19c0.01,-0.01 0.01,-0.03 0,-0.04zm-0.89 0.2l0 0 0 -0.28 0.1 0 0 0.28 -0.1 0zm0.69 -0.04l0 0 -0.5 0 0 -0.2 0.21 -0.07 0.02 0.02 -0.07 0.07c-0.01,0.01 -0.02,0.02 -0.02,0.04l0 0 0 0.04 0.43 0 -0.07 0.1z"/>
  </g>
 </g>
</svg>
