<?xml version="1.0" encoding="UTF-8"?>
<!DOCTYPE svg PUBLIC "-//W3C//DTD SVG 1.1//EN" "http://www.w3.org/Graphics/SVG/1.1/DTD/svg11.dtd">
<!-- Creator: CorelDRAW 2020 (64-Bit Version dՎvaluation) -->
<svg xmlns="http://www.w3.org/2000/svg" xml:space="preserve" width="59px" height="59px" version="1.1" style="shape-rendering:geometricPrecision; text-rendering:geometricPrecision; image-rendering:optimizeQuality; fill-rule:evenodd; clip-rule:evenodd"
viewBox="0 0 1.13 1.13"
 xmlns:xlink="http://www.w3.org/1999/xlink"
 xmlns:xodm="http://www.corel.com/coreldraw/odm/2003">
 <defs>
  <style type="text/css">
   <![CDATA[
    .fil0 {fill:none;fill-rule:nonzero}
    .fil1 {fill:#383838;fill-rule:nonzero}
   ]]>
  </style>
 </defs>
 <g id="Plan_x0020_1">
  <metadata id="CorelCorpID_0Corel-Layer"/>
  <g id="_2126645305024">
   <g>
    <polygon class="fil0" points="1.13,1.13 0,1.13 0,0 1.13,0 "/>
   </g>
   <g>
    <path class="fil1" d="M0.94 0.09l-0.75 0c-0.03,0 -0.05,0.03 -0.05,0.05l0 0.85c0,0.02 0.02,0.04 0.05,0.04l0.23 0c0.03,0 0.05,-0.02 0.05,-0.04l0 -0.1c0,-0.05 0.04,-0.09 0.09,-0.09 0.06,0 0.1,0.04 0.1,0.09l0 0.1c0,0.02 0.02,0.04 0.05,0.04l0.23 0c0.03,0 0.05,-0.02 0.05,-0.04l0 -0.85c0,-0.02 -0.02,-0.05 -0.05,-0.05zm-0.05 0.85l0 0 -0.14 0 0 -0.05c0,-0.1 -0.08,-0.18 -0.19,-0.18 -0.1,0 -0.18,0.08 -0.18,0.18l0 0.05 -0.14 0 0 -0.75 0.65 0 0 0.75z"/>
    <path class="fil1" d="M0.38 0.42l0.09 0c0.03,0 0.05,-0.02 0.05,-0.04l0 -0.05c0,-0.03 -0.02,-0.05 -0.05,-0.05l-0.09 0c-0.03,0 -0.05,0.02 -0.05,0.05l0 0.05c0,0.02 0.02,0.04 0.05,0.04z"/>
    <path class="fil1" d="M0.66 0.42l0.09 0c0.03,0 0.05,-0.02 0.05,-0.04l0 -0.05c0,-0.03 -0.02,-0.05 -0.05,-0.05l-0.09 0c-0.03,0 -0.05,0.02 -0.05,0.05l0 0.05c0,0.02 0.02,0.04 0.05,0.04z"/>
    <path class="fil1" d="M0.38 0.66l0.09 0c0.03,0 0.05,-0.02 0.05,-0.05l0 -0.05c0,-0.02 -0.02,-0.04 -0.05,-0.04l-0.09 0c-0.03,0 -0.05,0.02 -0.05,0.04l0 0.05c0,0.03 0.02,0.05 0.05,0.05z"/>
    <path class="fil1" d="M0.66 0.66l0.09 0c0.03,0 0.05,-0.02 0.05,-0.05l0 -0.05c0,-0.02 -0.02,-0.04 -0.05,-0.04l-0.09 0c-0.03,0 -0.05,0.02 -0.05,0.04l0 0.05c0,0.03 0.02,0.05 0.05,0.05z"/>
   </g>
  </g>
 </g>
</svg>
