<?xml version="1.0" encoding="UTF-8"?>
<!DOCTYPE svg PUBLIC "-//W3C//DTD SVG 1.1//EN" "http://www.w3.org/Graphics/SVG/1.1/DTD/svg11.dtd">
<!-- Creator: CorelDRAW 2020 (64-Bit Version dՎvaluation) -->
<svg xmlns="http://www.w3.org/2000/svg" xml:space="preserve" width="59px" height="59px" version="1.1" style="shape-rendering:geometricPrecision; text-rendering:geometricPrecision; image-rendering:optimizeQuality; fill-rule:evenodd; clip-rule:evenodd"
viewBox="0 0 0.81 0.81"
 xmlns:xlink="http://www.w3.org/1999/xlink"
 xmlns:xodm="http://www.corel.com/coreldraw/odm/2003">
 <defs>
  <style type="text/css">
   <![CDATA[
    .fil0 {fill:none;fill-rule:nonzero}
    .fil1 {fill:#383838;fill-rule:nonzero}
   ]]>
  </style>
 </defs>
 <g id="Plan_x0020_1">
  <metadata id="CorelCorpID_0Corel-Layer"/>
  <g id="_2126623712160">
   <polygon class="fil0" points="0.81,0.81 0,0.81 0,0 0.81,0 "/>
   <path class="fil1" d="M0.44 0.64c0.15,-0.02 0.27,-0.14 0.27,-0.3 0,-0.17 -0.14,-0.31 -0.3,-0.31 -0.17,0 -0.31,0.14 -0.31,0.31 0,0.16 0.12,0.28 0.27,0.3l0 0.07 -0.23 0 0 0.07 0.54 0 0 -0.07 -0.24 0 0 -0.07zm-0.1 -0.37l0 0 0.13 0 0 0.14 -0.13 0 0 -0.14zm-0.07 0l0 0 0 0.14 -0.09 0c-0.01,-0.03 -0.01,-0.05 -0.01,-0.07 0,-0.02 0,-0.05 0.01,-0.07l0.09 0zm0.07 0.2l0 0 0.13 0 0 0.1c-0.02,0 -0.04,0.01 -0.06,0.01 -0.03,0 -0.05,-0.01 -0.07,-0.01l0 -0.1zm0.2 0.06l0 0 0 -0.06 0.06 0c-0.02,0.03 -0.04,0.05 -0.06,0.06zm0.09 -0.12l0 0 -0.09 0 0 -0.14 0.09 0c0.01,0.02 0.01,0.05 0.01,0.07 0,0.02 0,0.04 -0.01,0.07zm-0.03 -0.21l0 0 -0.06 0 0 -0.06c0.02,0.02 0.04,0.04 0.06,0.06zm-0.13 -0.09l0 0 0 0.09 -0.13 0 0 -0.09c0.02,0 0.04,-0.01 0.07,-0.01 0.02,0 0.04,0.01 0.06,0.01zm-0.2 0.03l0 0 0 0.06 -0.06 0c0.02,-0.02 0.04,-0.04 0.06,-0.06zm-0.06 0.33l0 0 0.06 0 0 0.06c-0.02,-0.01 -0.04,-0.03 -0.06,-0.06z"/>
  </g>
 </g>
</svg>
