<?xml version="1.0" encoding="UTF-8"?>
<!DOCTYPE svg PUBLIC "-//W3C//DTD SVG 1.1//EN" "http://www.w3.org/Graphics/SVG/1.1/DTD/svg11.dtd">
<!-- Creator: CorelDRAW 2020 (64-Bit Version dՎvaluation) -->
<svg xmlns="http://www.w3.org/2000/svg" xml:space="preserve" width="59px" height="59px" version="1.1" style="shape-rendering:geometricPrecision; text-rendering:geometricPrecision; image-rendering:optimizeQuality; fill-rule:evenodd; clip-rule:evenodd"
viewBox="0 0 0.81 0.81"
 xmlns:xlink="http://www.w3.org/1999/xlink"
 xmlns:xodm="http://www.corel.com/coreldraw/odm/2003">
 <defs>
  <style type="text/css">
   <![CDATA[
    .fil0 {fill:#383838}
   ]]>
  </style>
 </defs>
 <g id="Plan_x0020_1">
  <metadata id="CorelCorpID_0Corel-Layer"/>
  <path class="fil0" d="M0.27 0l0 0.34 -0.27 0 0 0.47 0.54 0 0 -0.81 -0.27 0 0 0zm0.07 0.07l0.13 0 0 0.67 -0.4 0 0 -0.34 0.2 0 0 0.14 -0.02 0c-0.03,0 -0.05,0.02 -0.05,0.05l0 0.01 0.14 0 0 -0.53 0 0 0 0zm0.27 -0.07l0 0.2 0.2 0 0 -0.2 -0.2 0zm0.13 0.13l-0.07 0 0 -0.06 0.07 0 0 0.06zm-0.03 0.67c0,0 -0.01,0 -0.01,0 -0.01,0 -0.01,0 -0.01,-0.01 0,0 -0.01,0 -0.01,-0.01 0,0 0,-0.01 0,-0.01 0,0 0,-0.01 0,-0.01 0,-0.01 0.01,-0.01 0.01,-0.01 0,-0.01 0,-0.01 0.01,-0.01 0,0 0.01,0 0.01,0 0.01,0 0.01,0 0.02,0 0,0 0,0 0.01,0.01 0,0 0,0 0,0.01 0,0 0.01,0.01 0.01,0.01 0,0 -0.01,0.01 -0.01,0.01 0,0.01 0,0.01 0,0.01 -0.01,0.01 -0.01,0.01 -0.01,0.01 -0.01,0 -0.01,0 -0.02,0zm0 0c0.01,0 0.01,0 0.01,0 0.01,0 0.01,-0.01 0.01,-0.01 0,0 0.01,-0.01 0.01,-0.01 0,0 0,-0.01 0,-0.01 0,0 0,-0.01 0,-0.01 0,-0.01 -0.01,-0.01 -0.01,-0.01 0,0 0,-0.01 -0.01,-0.01 0,0 0,0 -0.01,0 0,0 -0.01,0 -0.01,0 0,0 -0.01,0.01 -0.01,0.01 0,0 0,0 0,0.01 -0.01,0 -0.01,0.01 -0.01,0.01 0,0 0,0.01 0.01,0.01 0,0 0,0.01 0,0.01 0,0 0.01,0.01 0.01,0.01 0,0 0.01,0 0.01,0zm0.02 -0.01l-0.01 0 -0.01 -0.02 -0.01 0 0 0.02 0 0 0 -0.04 0.02 0c0,0 0,0 0.01,0 0,0.01 0,0.01 0,0.01 0,0 0,0 0,0.01 0,0 0,0 0,0 -0.01,0 -0.01,0 -0.01,0 0,0 0,0 0,0l0.01 0.02 0 0zm-0.02 -0.02c0,0 0,0 0.01,0 0,0 0,0 0,0 0,0 0,0 0,0 0,-0.01 0,-0.01 0,-0.01 0,0 0,0 0,0 0,0 0,0 0,0 0,-0.01 0,-0.01 0,-0.01 0,0 0,0 0,0l-0.02 0 0 0.02 0.01 0 0 0z"/>
 </g>
</svg>
