<?xml version="1.0" encoding="UTF-8"?>
<!DOCTYPE svg PUBLIC "-//W3C//DTD SVG 1.1//EN" "http://www.w3.org/Graphics/SVG/1.1/DTD/svg11.dtd">
<!-- Creator: CorelDRAW 2020 (64-Bit Version dՎvaluation) -->
<svg xmlns="http://www.w3.org/2000/svg" xml:space="preserve" width="59px" height="59px" version="1.1" style="shape-rendering:geometricPrecision; text-rendering:geometricPrecision; image-rendering:optimizeQuality; fill-rule:evenodd; clip-rule:evenodd"
viewBox="0 0 0.81 0.81"
 xmlns:xlink="http://www.w3.org/1999/xlink"
 xmlns:xodm="http://www.corel.com/coreldraw/odm/2003">
 <defs>
  <style type="text/css">
   <![CDATA[
    .fil0 {fill:none;fill-rule:nonzero}
    .fil1 {fill:#383838;fill-rule:nonzero}
   ]]>
  </style>
 </defs>
 <g id="Plan_x0020_1">
  <metadata id="CorelCorpID_0Corel-Layer"/>
  <g id="_2126623656576">
   <g>
    <polygon class="fil0" points="0.81,0.81 0,0.81 0,0 0.81,0 "/>
   </g>
   <g>
    <path class="fil1" d="M0.27 0.61c0,-0.08 0.05,-0.13 0.13,-0.13 0.08,0 0.12,0.05 0.12,0.13l-0.25 0z"/>
    <path class="fil1" d="M0.48 0.36c0,0.04 -0.04,0.08 -0.08,0.08 -0.05,0 -0.09,-0.04 -0.09,-0.08 0,-0.05 0.04,-0.09 0.09,-0.09 0.04,0 0.08,0.04 0.08,0.09z"/>
    <path class="fil1" d="M0.64 0.14l-0.03 0 0 0.06 0.03 0 0 0.48 -0.47 0 0 -0.48 0.03 0 0 -0.06 -0.03 0c-0.04,0 -0.07,0.03 -0.07,0.06l0 0.48c0,0.03 0.03,0.07 0.07,0.07l0.47 0c0.04,0 0.07,-0.04 0.07,-0.07l0 -0.48c0,-0.03 -0.03,-0.06 -0.07,-0.06z"/>
    <path class="fil1" d="M0.47 0.1c0,-0.04 -0.03,-0.07 -0.06,-0.07 -0.04,0 -0.07,0.03 -0.07,0.07l-0.07 0 0 0.1 0.27 0 0 -0.1 -0.07 0z"/>
   </g>
  </g>
 </g>
</svg>
