<?xml version="1.0" encoding="UTF-8"?>
<!DOCTYPE svg PUBLIC "-//W3C//DTD SVG 1.1//EN" "http://www.w3.org/Graphics/SVG/1.1/DTD/svg11.dtd">
<!-- Creator: CorelDRAW 2020 (64-Bit Version dՎvaluation) -->
<svg xmlns="http://www.w3.org/2000/svg" xml:space="preserve" width="59px" height="59px" version="1.1" style="shape-rendering:geometricPrecision; text-rendering:geometricPrecision; image-rendering:optimizeQuality; fill-rule:evenodd; clip-rule:evenodd"
viewBox="0 0 1.13 1.13"
 xmlns:xlink="http://www.w3.org/1999/xlink"
 xmlns:xodm="http://www.corel.com/coreldraw/odm/2003">
 <defs>
  <style type="text/css">
   <![CDATA[
    .fil0 {fill:none;fill-rule:nonzero}
    .fil1 {fill:#383838;fill-rule:nonzero}
   ]]>
  </style>
 </defs>
 <g id="Plan_x0020_1">
  <metadata id="CorelCorpID_0Corel-Layer"/>
  <g id="_2126659884784">
   <g>
    <polygon class="fil0" points="1.13,1.13 0,1.13 0,0 1.13,0 "/>
   </g>
   <g>
    <path class="fil1" d="M0.89 0.09l-0.65 0c-0.03,0 -0.05,0.03 -0.05,0.05l0 0.85c0,0.02 0.02,0.04 0.05,0.04l0.65 0c0.03,0 0.05,-0.02 0.05,-0.04l0 -0.85c0,-0.02 -0.02,-0.05 -0.05,-0.05zm-0.61 0.1l0 0 0.1 0 0 0.75 -0.1 0 0 -0.75zm0.57 0.75l0 0 -0.38 0 0 -0.75 0.38 0 0 0.75z"/>
    <polygon class="fil1" points="0.8,0.42 0.8,0.28 0.52,0.28 0.52,0.42 "/>
   </g>
  </g>
 </g>
</svg>
