<?xml version="1.0" encoding="UTF-8"?>
<!DOCTYPE svg PUBLIC "-//W3C//DTD SVG 1.1//EN" "http://www.w3.org/Graphics/SVG/1.1/DTD/svg11.dtd">
<!-- Creator: CorelDRAW 2020 (64-Bit Version dՎvaluation) -->
<svg xmlns="http://www.w3.org/2000/svg" xml:space="preserve" width="59px" height="59px" version="1.1" style="shape-rendering:geometricPrecision; text-rendering:geometricPrecision; image-rendering:optimizeQuality; fill-rule:evenodd; clip-rule:evenodd"
viewBox="0 0 1.13 1.13"
 xmlns:xlink="http://www.w3.org/1999/xlink"
 xmlns:xodm="http://www.corel.com/coreldraw/odm/2003">
 <defs>
  <style type="text/css">
   <![CDATA[
    .fil0 {fill:none;fill-rule:nonzero}
    .fil1 {fill:#383838;fill-rule:nonzero}
   ]]>
  </style>
 </defs>
 <g id="Plan_x0020_1">
  <metadata id="CorelCorpID_0Corel-Layer"/>
  <g id="_2126623678128">
   <polygon class="fil0" points="1.13,1.13 0,1.13 0,0 1.13,0 "/>
   <path class="fil1" d="M0.99 0.33l-0.05 0 0 -0.05 -0.09 0 0 0.05 -0.1 0 0 -0.14c0,-0.03 -0.02,-0.05 -0.04,-0.05l-0.29 0c-0.02,0 -0.04,0.02 -0.04,0.05l0 0.14 -0.1 0 0 -0.05 -0.09 0 0 0.05 -0.05 0c-0.02,0 -0.05,0.02 -0.05,0.05l0 0.56c0,0.03 0.03,0.05 0.05,0.05l0.85 0c0.02,0 0.04,-0.02 0.04,-0.05l0 -0.56c0,-0.03 -0.02,-0.05 -0.04,-0.05zm-0.52 -0.05l0 0 0.19 0 0 0.05 -0.19 0 0 -0.05zm0.47 0.61l0 0 -0.75 0 0 -0.47 0.23 0 0.29 0 0.23 0 0 0.47z"/>
  </g>
 </g>
</svg>
