<?xml version="1.0" encoding="UTF-8"?>
<!DOCTYPE svg PUBLIC "-//W3C//DTD SVG 1.1//EN" "http://www.w3.org/Graphics/SVG/1.1/DTD/svg11.dtd">
<!-- Creator: CorelDRAW 2020 (64-Bit Version dՎvaluation) -->
<svg xmlns="http://www.w3.org/2000/svg" xml:space="preserve" width="59px" height="59px" version="1.1" style="shape-rendering:geometricPrecision; text-rendering:geometricPrecision; image-rendering:optimizeQuality; fill-rule:evenodd; clip-rule:evenodd"
viewBox="0 0 1.13 1.13"
 xmlns:xlink="http://www.w3.org/1999/xlink"
 xmlns:xodm="http://www.corel.com/coreldraw/odm/2003">
 <defs>
  <style type="text/css">
   <![CDATA[
    .fil0 {fill:none;fill-rule:nonzero}
    .fil1 {fill:#383838;fill-rule:nonzero}
   ]]>
  </style>
 </defs>
 <g id="Plan_x0020_1">
  <metadata id="CorelCorpID_0Corel-Layer"/>
  <g id="_2126638621056">
   <polygon class="fil0" points="1.13,1.13 0,1.13 0,0 1.13,0 "/>
   <g>
    <path class="fil1" d="M0.94 1.03l-0.85 0c-0.02,0 -0.04,-0.02 -0.04,-0.04l0 -0.85c0,-0.02 0.02,-0.05 0.04,-0.05l0.76 0c0.02,0 0.04,0.03 0.04,0.05l0 0.14 0.14 0c0.03,0 0.05,0.02 0.05,0.05l0 0.56c0,0.02 0,0.03 -0.01,0.04l-0.1 0.09c-0.01,0.01 -0.02,0.01 -0.03,0.01zm-0.05 -0.09l0 0 0.03 0 0.07 -0.07 0 -0.49 -0.1 0 0 0.56zm-0.75 0l0 0 0.66 0 0 -0.75 -0.66 0 0 0.75z"/>
   </g>
   <g>
    <polygon class="fil1" points="0.66,0.42 0.24,0.42 0.24,0.28 0.66,0.28 "/>
   </g>
   <g>
    <polygon class="fil1" points="0.42,0.56 0.24,0.56 0.24,0.47 0.42,0.47 "/>
   </g>
   <g>
    <polygon class="fil1" points="0.66,0.56 0.47,0.56 0.47,0.47 0.66,0.47 "/>
   </g>
   <g>
    <polygon class="fil1" points="0.42,0.71 0.24,0.71 0.24,0.61 0.42,0.61 "/>
   </g>
   <g>
    <polygon class="fil1" points="0.66,0.71 0.47,0.71 0.47,0.61 0.66,0.61 "/>
   </g>
   <g>
    <polygon class="fil1" points="0.42,0.85 0.24,0.85 0.24,0.75 0.42,0.75 "/>
   </g>
   <g>
    <polygon class="fil1" points="0.66,0.85 0.47,0.85 0.47,0.75 0.66,0.75 "/>
   </g>
  </g>
 </g>
</svg>
