<?xml version="1.0" encoding="UTF-8"?>
<!DOCTYPE svg PUBLIC "-//W3C//DTD SVG 1.1//EN" "http://www.w3.org/Graphics/SVG/1.1/DTD/svg11.dtd">
<!-- Creator: CorelDRAW 2020 (64-Bit Version dՎvaluation) -->
<svg xmlns="http://www.w3.org/2000/svg" xml:space="preserve" width="59px" height="59px" version="1.1" style="shape-rendering:geometricPrecision; text-rendering:geometricPrecision; image-rendering:optimizeQuality; fill-rule:evenodd; clip-rule:evenodd"
viewBox="0 0 1.13 1.13"
 xmlns:xlink="http://www.w3.org/1999/xlink"
 xmlns:xodm="http://www.corel.com/coreldraw/odm/2003">
 <defs>
  <style type="text/css">
   <![CDATA[
    .fil0 {fill:none;fill-rule:nonzero}
    .fil1 {fill:#383838;fill-rule:nonzero}
   ]]>
  </style>
 </defs>
 <g id="Plan_x0020_1">
  <metadata id="CorelCorpID_0Corel-Layer"/>
  <g id="_2126623676784">
   <g>
    <polygon class="fil0" points="1.13,1.13 0,1.13 0,0 1.13,0 "/>
   </g>
   <g>
    <path class="fil1" d="M0.56 0.56l0.38 0c0.03,0 0.05,-0.02 0.05,-0.04 0,-0.24 -0.19,-0.43 -0.43,-0.43 -0.02,0 -0.04,0.03 -0.04,0.05l0 0.38c0,0.02 0.02,0.04 0.04,0.04zm0.05 -0.37l0 0c0.15,0.02 0.26,0.14 0.28,0.28l-0.28 0 0 -0.28z"/>
    <path class="fil1" d="M1.07 0.62c-0.01,0 -0.02,-0.01 -0.04,-0.01l-0.37 0c-0.02,0 -0.04,0.01 -0.05,0.03 0,0.02 0,0.04 0.01,0.05l0.27 0.27c0.01,0.01 0.02,0.01 0.03,0.01 0.02,0 0.03,0 0.04,-0.01 0.08,-0.08 0.12,-0.19 0.12,-0.3 0,-0.01 0,-0.03 -0.01,-0.04zm-0.15 0.24l0 0 -0.15 -0.15 0.21 0c0,0.05 -0.03,0.1 -0.06,0.15z"/>
    <path class="fil1" d="M0.47 0.59l0 -0.35c0,-0.02 -0.01,-0.03 -0.02,-0.04 -0.01,-0.01 -0.02,-0.01 -0.03,-0.01 -0.21,0.03 -0.37,0.21 -0.37,0.42 0,0.23 0.19,0.42 0.42,0.42 0.1,0 0.2,-0.03 0.27,-0.09 0.01,-0.01 0.02,-0.03 0.02,-0.04 0,-0.01 -0.01,-0.02 -0.02,-0.03l-0.27 -0.28zm0 0.35l0 0c-0.18,0 -0.33,-0.15 -0.33,-0.33 0,-0.15 0.1,-0.27 0.24,-0.31l0 0.31c0,0.01 0,0.03 0.01,0.03l0.25 0.25c-0.05,0.03 -0.11,0.05 -0.17,0.05z"/>
   </g>
  </g>
 </g>
</svg>
