<?xml version="1.0" encoding="UTF-8"?>
<!DOCTYPE svg PUBLIC "-//W3C//DTD SVG 1.1//EN" "http://www.w3.org/Graphics/SVG/1.1/DTD/svg11.dtd">
<!-- Creator: CorelDRAW 2020 (64-Bit Version dՎvaluation) -->
<svg xmlns="http://www.w3.org/2000/svg" xml:space="preserve" width="59px" height="59px" version="1.1" style="shape-rendering:geometricPrecision; text-rendering:geometricPrecision; image-rendering:optimizeQuality; fill-rule:evenodd; clip-rule:evenodd"
viewBox="0 0 0.81 0.81"
 xmlns:xlink="http://www.w3.org/1999/xlink"
 xmlns:xodm="http://www.corel.com/coreldraw/odm/2003">
 <defs>
  <style type="text/css">
   <![CDATA[
    .fil0 {fill:none;fill-rule:nonzero}
    .fil1 {fill:#383838;fill-rule:nonzero}
   ]]>
  </style>
 </defs>
 <g id="Plan_x0020_1">
  <metadata id="CorelCorpID_0Corel-Layer"/>
  <g id="_2126641714288">
   <g>
    <polygon class="fil0" points="0.81,0.81 0,0.81 0,0 0.81,0 "/>
   </g>
   <g>
    <path class="fil1" d="M0.17 0.68c0,0.04 0.03,0.07 0.07,0.07l0.34 0c0.03,0 0.06,-0.03 0.06,-0.07l0 -0.41 -0.47 0 0 0.41zm0.07 -0.34l0 0 0.34 0 0 0.34 -0.34 0 0 -0.34z"/>
    <polygon class="fil1" points="0.51,0.17 0.51,0.1 0.3,0.1 0.3,0.17 0.1,0.17 0.1,0.24 0.71,0.24 0.71,0.17 "/>
    <polygon class="fil1" points="0.3,0.61 0.37,0.61 0.37,0.41 0.3,0.41 "/>
    <polygon class="fil1" points="0.44,0.61 0.51,0.61 0.51,0.41 0.44,0.41 "/>
   </g>
  </g>
 </g>
</svg>
