<?xml version="1.0" encoding="UTF-8"?>
<!DOCTYPE svg PUBLIC "-//W3C//DTD SVG 1.1//EN" "http://www.w3.org/Graphics/SVG/1.1/DTD/svg11.dtd">
<!-- Creator: CorelDRAW 2020 (64-Bit Version dՎvaluation) -->
<svg xmlns="http://www.w3.org/2000/svg" xml:space="preserve" width="59px" height="59px" version="1.1" style="shape-rendering:geometricPrecision; text-rendering:geometricPrecision; image-rendering:optimizeQuality; fill-rule:evenodd; clip-rule:evenodd"
viewBox="0 0 1.13 1.13"
 xmlns:xlink="http://www.w3.org/1999/xlink"
 xmlns:xodm="http://www.corel.com/coreldraw/odm/2003">
 <defs>
  <style type="text/css">
   <![CDATA[
    .fil0 {fill:none;fill-rule:nonzero}
    .fil1 {fill:#383838;fill-rule:nonzero}
   ]]>
  </style>
 </defs>
 <g id="Plan_x0020_1">
  <metadata id="CorelCorpID_0Corel-Layer"/>
  <g id="_2126538563520">
   <g>
    <polygon class="fil0" points="1.13,1.13 0,1.13 0,0 1.13,0 "/>
   </g>
   <g>
    <path class="fil1" d="M1.01 0.29l-0.43 -0.19c-0.01,-0.01 -0.02,-0.01 -0.04,0l-0.42 0.19c-0.02,0 -0.03,0.02 -0.03,0.04l0 0.47c0,0.02 0.01,0.03 0.03,0.04l0.42 0.19c0.01,0 0.02,0 0.02,0 0.01,0 0.02,0 0.02,0l0.43 -0.19c0.01,-0.01 0.02,-0.02 0.02,-0.04l0 -0.47c0,-0.02 -0.01,-0.04 -0.02,-0.04zm-0.45 -0.1l0 0 0.31 0.14 -0.08 0.04 -0.31 -0.14 0.08 -0.04zm0 0.28l0 0 -0.3 -0.14 0.1 -0.05 0.31 0.14 -0.11 0.05zm-0.37 -0.07l0 0 0.33 0.15 0 0.36 -0.33 -0.14 0 -0.37zm0.42 0.51l0 0 0 -0.36 0.33 -0.15 0 0.37 -0.33 0.14z"/>
   </g>
  </g>
 </g>
</svg>
