<?xml version="1.0" encoding="UTF-8"?>
<!DOCTYPE svg PUBLIC "-//W3C//DTD SVG 1.1//EN" "http://www.w3.org/Graphics/SVG/1.1/DTD/svg11.dtd">
<!-- Creator: CorelDRAW 2020 (64-Bit Version dՎvaluation) -->
<svg xmlns="http://www.w3.org/2000/svg" xml:space="preserve" width="59px" height="59px" version="1.1" style="shape-rendering:geometricPrecision; text-rendering:geometricPrecision; image-rendering:optimizeQuality; fill-rule:evenodd; clip-rule:evenodd"
viewBox="0 0 0.81 0.81"
 xmlns:xlink="http://www.w3.org/1999/xlink"
 xmlns:xodm="http://www.corel.com/coreldraw/odm/2003">
 <defs>
  <style type="text/css">
   <![CDATA[
    .fil0 {fill:none;fill-rule:nonzero}
    .fil1 {fill:#383838;fill-rule:nonzero}
   ]]>
  </style>
 </defs>
 <g id="Plan_x0020_1">
  <metadata id="CorelCorpID_0Corel-Layer"/>
  <g id="_2126623654560">
   <g>
    <polygon class="fil0" points="0.81,0.81 0,0.81 0,0 0.81,0 "/>
   </g>
   <g>
    <path class="fil1" d="M0.59 0l-0.25 0c-0.04,0 -0.07,0.03 -0.07,0.07l0 0.47c0,0.04 0.03,0.07 0.07,0.07l0.34 0c0.04,0 0.07,-0.03 0.07,-0.07l0 -0.38 -0.16 -0.16zm0.09 0.54l0 0 -0.34 0 0 -0.47 0.2 0 0 0.13 0.14 0 0 0.34z"/>
    <path class="fil1" d="M0.24 0.1l-0.07 0 0 0.54c0,0.04 0.03,0.07 0.07,0.07l0.4 0 0 -0.07 -0.4 0 0 -0.54z"/>
    <path class="fil1" d="M0.14 0.2l-0.07 0 0 0.55c0,0.03 0.03,0.06 0.07,0.06l0.4 0 0 -0.06 -0.4 0 0 -0.55z"/>
   </g>
  </g>
 </g>
</svg>
